<svg width="16" height="16" viewBox="0 0 16 16" fill="none" xmlns="http://www.w3.org/2000/svg">
<g clip-path="url(#clip0_869_39433)">
<path d="M8.00013 9.9528C8.50539 9.9528 8.98924 10.1427 9.34621 10.4799L11.9405 12.9305C11.9841 12.9717 12.0254 13.0136 12.0636 13.0584C12.1576 13.1652 12.2363 13.2815 12.2998 13.4028C12.432 13.654 12.4977 13.9284 12.4977 14.2021C12.4977 14.662 12.312 15.1227 11.9397 15.4736C11.1968 16.1755 9.99134 16.1755 9.2476 15.4736L8.00013 14.2952L6.7519 15.4736C6.00892 16.1755 4.8035 16.1755 4.05976 15.4736C3.46736 14.914 3.34659 14.075 3.7005 13.4028C3.76471 13.28 3.8442 13.163 3.93898 13.0547C3.9772 13.0121 4.01695 12.9703 4.05899 12.9305L4.16371 12.8316L6.6533 10.4799C7.01103 10.142 7.49564 9.9528 8.00013 9.9528Z" fill="#343741"/>
<path d="M8.00032 9.9528C8.50557 9.9528 8.98943 10.1427 9.34639 10.4799L11.9407 12.9306C11.9843 12.9717 12.0255 13.0136 12.0638 13.0584C12.1578 13.1652 12.2365 13.2815 12.3 13.4028C12.2105 13.5739 12.0905 13.7335 11.9399 13.8757C11.197 14.5776 9.99153 14.5776 9.24779 13.8757L8.00032 12.6973L6.75209 13.875C6.00911 14.5768 4.80368 14.5768 4.05994 13.875C3.90936 13.7328 3.79012 13.5732 3.70068 13.4028C3.76489 13.28 3.84439 13.1631 3.93917 13.0547C3.97739 13.0121 4.01714 12.9703 4.05918 12.9306L4.1639 12.8316L6.65348 10.4799C7.01121 10.142 7.49583 9.9528 8.00032 9.9528Z" fill="#343741"/>
<path d="M8 8.64347e-05C12.4112 8.62419e-05 16 3.39013 16 7.5571L16 11.1638C16 12.1111 15.2242 12.888 14.2389 12.9566C14.1922 12.961 14.1448 12.9624 14.0959 12.9624C13.0449 12.9624 12.1919 12.1573 12.1919 11.1638L12.1919 7.55638C12.1919 5.37289 10.3115 3.59592 7.99924 3.59592C5.68775 3.59592 3.80661 5.37289 3.80661 7.55638L3.80661 11.1638C3.80661 12.1566 2.95433 12.9624 1.90254 12.9624C1.85439 12.9624 1.80623 12.961 1.7596 12.9566C0.775846 12.888 -3.718e-08 12.1118 -7.86209e-08 11.1638L-2.36305e-07 7.55638C-4.18449e-07 3.38941 3.58876 8.66275e-05 8 8.64347e-05Z" fill="#343741"/>
<path d="M4.16516 12.8313C4.09942 12.9129 4.02298 12.988 3.94043 13.0544C3.97865 13.0118 4.0184 12.97 4.06044 12.9302L4.16516 12.8313Z" fill="#343741"/>
<path d="M11.9406 12.9305C11.9841 12.9717 12.0254 13.0136 12.0636 13.0583C11.9773 12.9898 11.8993 12.9118 11.832 12.828L11.9406 12.9305Z" fill="#343741"/>
<path d="M8 2.58433C11.6866 2.58433 14.6845 5.41695 14.6845 8.89869L14.6845 11.914C14.6845 12.3198 14.5148 12.6866 14.2389 12.9574C14.1922 12.9617 14.1448 12.9631 14.0959 12.9631C13.0449 12.9631 12.1919 12.158 12.1919 11.1645L12.1919 7.55712C12.1919 5.37363 10.3115 3.59665 7.99923 3.59665C5.68775 3.59665 3.80661 5.37363 3.80661 7.55712L3.80661 11.1638C3.80661 12.1566 2.95432 12.9624 1.90254 12.9624C1.85438 12.9624 1.80623 12.961 1.7596 12.9566C1.48366 12.6859 1.31396 12.3191 1.31396 11.9133L1.31396 8.89869C1.31549 5.41695 4.31339 2.58433 8 2.58433Z" fill="#343741"/>
</g>
<defs>
<clipPath id="clip0_869_39433">
<rect width="16" height="16" fill="white" transform="translate(0 16) rotate(-90)"/>
</clipPath>
</defs>
</svg>
